# This file uses centimeters as units for non-parametric coordinates.

mtllib horizontalPillar.mtl
g default
v -148.813769 33.760221 -43.497198
v 98.023987 33.760221 -43.497198
v -148.813769 36.682469 -43.504909
v 98.023987 36.682469 -43.504909
v -148.813769 36.682469 -51.523788
v 98.023987 36.682469 -51.523788
v -148.813769 33.760221 -51.528138
v 98.024014 33.760221 -51.528138
v -148.813769 37.169514 -44.742256
v 98.023987 37.169514 -44.742256
v -148.813769 37.169514 -50.265399
v 98.023987 37.169514 -50.265399
v -148.813769 33.273180 -44.700346
v 98.024014 33.273180 -44.700346
v -148.813769 33.273180 -50.283794
v 98.023987 33.273180 -50.283794
v 66.875047 33.760221 -43.497198
v 66.875060 36.682469 -43.504909
v 66.875060 37.169514 -44.742256
v 66.875060 37.169514 -50.265399
v 66.875060 36.682469 -51.523788
v 66.875060 33.760221 -51.528138
v 66.875060 33.273180 -50.283794
v 66.875060 33.273180 -44.700346
v -117.602342 33.760221 -43.497198
v -117.602342 36.682469 -43.504909
v -117.602342 37.169514 -44.742256
v -117.602342 37.169514 -50.265399
v -117.602342 36.682469 -51.523788
v -117.602342 33.760221 -51.528138
v -117.602342 33.273180 -50.283794
v -117.602342 33.273180 -44.700346
v 98.023987 37.169514 -47.502074
v 97.781466 37.169514 -50.265399
v 66.875033 37.169514 -51.345225
v 98.023987 37.169514 -51.345225
v 97.781466 36.682469 -51.523788
v 66.875033 35.221345 -51.583306
v 98.023987 35.221345 -51.583306
v 97.781466 33.760221 -51.528138
v 66.875033 33.273180 -51.362632
v 98.024014 33.273180 -51.362632
v 97.781466 33.273180 -50.283794
v 66.875033 33.273180 -47.488638
v 98.024014 33.273180 -47.488638
v 97.781466 33.273180 -44.700346
v 66.875033 33.273180 -43.642109
v 98.023987 33.273180 -43.642109
v -25.359186 33.760221 -43.497198
v -25.359186 36.682469 -43.504909
v -25.359186 37.169514 -44.742256
v -25.359186 37.169514 -50.265399
v -25.359186 36.682469 -51.523788
v -25.359186 33.760221 -51.528138
v -25.359176 33.273180 -50.283794
v -25.359186 33.273180 -44.700346
v -148.535539 33.760221 -43.497198
v -117.602342 35.221345 -43.448894
v -148.535539 36.682469 -43.504909
v -148.813769 35.221345 -43.448894
v -148.535539 37.169514 -50.265399
v -117.602342 37.169514 -51.345225
v -148.535539 36.682469 -51.523788
v -148.813769 37.169514 -51.345225
v -117.602342 35.221345 -51.583306
v -148.535539 33.760221 -51.528138
v -148.813769 35.221345 -51.583306
v -148.535539 33.273180 -44.700346
v -117.602342 33.273180 -43.642109
v -148.813769 33.273180 -43.642109
v -117.602342 37.169514 -43.672946
v -148.535539 37.169514 -44.742256
v -148.813769 37.169514 -43.672946
v -117.602342 37.169514 -47.502074
v -148.813769 37.169514 -47.502074
v -148.535539 33.273180 -50.283794
v -117.602342 33.273180 -47.488638
v -148.813769 33.273180 -47.488638
v -117.602342 33.273180 -51.362632
v -148.813769 33.273180 -51.362632
v 66.875033 35.221345 -43.448894
v 97.781466 33.760221 -43.497198
v 98.023987 35.221345 -43.448894
v 97.781466 36.682469 -43.504909
v 66.875033 37.169514 -43.672946
v 98.023987 37.169514 -43.672946
v 97.781466 37.169514 -44.742256
v 66.875033 37.169514 -47.502074
v -148.535539 35.221345 -43.448894
v -148.535539 37.169514 -51.345225
v -148.535539 35.221345 -51.583306
v -148.535539 33.273180 -43.642109
v -148.535539 37.169514 -43.672946
v -148.535539 37.169514 -47.502074
v -148.535539 33.273180 -47.488638
v -148.535539 33.273180 -51.362632
v 97.781466 35.221345 -43.448894
v 97.781466 37.169514 -43.672946
v 97.781466 37.169514 -47.502074
v 97.781466 37.169514 -51.345225
v 97.781466 35.221345 -51.583306
v 97.781466 33.273180 -51.362632
v 97.781479 33.273180 -47.488638
v 97.781466 33.273180 -43.642109
v -25.359186 35.221345 -43.448894
v -25.359186 37.169514 -43.672946
v -25.359186 37.169514 -47.502074
v -25.359186 37.169514 -51.345225
v -25.359186 35.221345 -51.583306
v -25.359183 33.273180 -51.362632
v -25.359183 33.273180 -47.488638
v -25.359186 33.273180 -43.642109
vt 0.006836 0.094976
vt 0.007948 0.094976
vt 0.007948 0.100818
vt 0.006836 0.100818
vt 0.131552 0.094976
vt 0.131552 0.100818
vt 0.131552 0.106661
vt 0.007948 0.106661
vt 0.006836 0.106661
vt 0.006836 0.066958
vt 0.007948 0.066958
vt 0.007948 0.074202
vt 0.006836 0.074202
vt 0.131552 0.066958
vt 0.131552 0.071273
vt 0.131552 0.076275
vt 0.007948 0.076275
vt 0.006836 0.076275
vt 0.007948 0.082118
vt 0.006836 0.082118
vt 0.131552 0.082118
vt 0.131552 0.087961
vt 0.007948 0.087961
vt 0.006836 0.087961
vt 0.006836 0.033457
vt 0.007948 0.033457
vt 0.007948 0.092946
vt 0.006836 0.092946
vt 0.131552 0.033457
vt 0.131552 0.037686
vt 0.007948 0.040615
vt 0.006836 0.040615
vt 0.131552 0.108720
vt 0.131552 0.044888
vt 0.007948 0.044888
vt 0.006836 0.044888
vt 0.007948 0.055916
vt 0.006836 0.055916
vt 0.131552 0.055916
vt 0.006836 0.011147
vt 0.007948 0.011147
vt 0.007948 0.022316
vt 0.006836 0.022316
vt 0.131552 0.011147
vt 0.131552 0.022316
vt 0.007948 0.006836
vt 0.006836 0.006836
vt 0.131552 0.090016
vt 0.868697 0.106661
vt 0.868697 0.100818
vt 0.992195 0.100818
vt 0.992195 0.106661
vt 0.868697 0.094976
vt 0.992195 0.094976
vt 0.993164 0.094976
vt 0.993164 0.100818
vt 0.993164 0.106661
vt 0.868697 0.044888
vt 0.868697 0.040615
vt 0.992195 0.108720
vt 0.992194 0.044888
vt 0.993164 0.108720
vt 0.993164 0.044888
vt 0.868697 0.066958
vt 0.868697 0.055916
vt 0.992195 0.055916
vt 0.992194 0.066958
vt 0.993164 0.055916
vt 0.993164 0.066958
vt 0.868697 0.076275
vt 0.868697 0.074202
vt 0.992195 0.071273
vt 0.992194 0.076275
vt 0.993164 0.071273
vt 0.993163 0.076275
vt 0.868697 0.087961
vt 0.868697 0.082118
vt 0.992194 0.082118
vt 0.992194 0.087961
vt 0.993163 0.082118
vt 0.993163 0.087961
vt 0.868697 0.011147
vt 0.868697 0.006836
vt 0.992194 0.090016
vt 0.992195 0.011147
vt 0.993163 0.090016
vt 0.993164 0.011147
vt 0.868697 0.033458
vt 0.868697 0.022316
vt 0.992195 0.022316
vt 0.992195 0.033458
vt 0.993164 0.022316
vt 0.993164 0.033457
vt 0.868697 0.092946
vt 0.992195 0.037686
vt 0.993164 0.037686
vt 0.500143 0.100818
vt 0.500143 0.106661
vt 0.500143 0.094976
vt 0.500143 0.108719
vt 0.500142 0.044888
vt 0.500142 0.055916
vt 0.500142 0.066958
vt 0.500142 0.071273
vt 0.500142 0.076275
vt 0.500142 0.082118
vt 0.500142 0.087961
vt 0.500142 0.090016
vt 0.500143 0.011147
vt 0.500142 0.022316
vt 0.500142 0.033457
vt 0.500142 0.037686
vt 0.868697 0.037686
vt 0.500143 0.092946
vt 0.131552 0.092946
vt 0.868697 0.090016
vt 0.500142 0.006836
vt 0.131552 0.006836
vt 0.868697 0.071273
vt 0.500142 0.074202
vt 0.131552 0.074202
vt 0.868697 0.108720
vt 0.500142 0.040615
vt 0.131552 0.040615
vt 0.993164 0.092946
vt 0.992195 0.092946
vt 0.993164 0.006836
vt 0.992195 0.006836
vt 0.993163 0.074202
vt 0.992194 0.074202
vt 0.993164 0.040615
vt 0.992195 0.040616
vt 0.007948 0.090016
vt 0.006836 0.090016
vt 0.007948 0.108720
vt 0.006836 0.108720
vt 0.007948 0.037686
vt 0.006836 0.037686
vt 0.007948 0.071273
vt 0.006836 0.071273
vn 0.000000 -0.098694 0.995118
vn 0.000000 -0.098694 0.995118
vn 0.000000 0.002639 0.999997
vn 0.000000 0.002639 0.999997
vn 0.000000 -0.098694 0.995118
vn 0.000000 0.002639 0.999997
vn 0.000000 0.114253 0.993452
vn 0.000000 0.114253 0.993452
vn 0.000000 0.114253 0.993452
vn 0.000000 1.000000 0.000000
vn 0.000000 1.000000 0.000000
vn 0.000000 0.932586 -0.360947
vn 0.000000 0.932588 -0.360944
vn 0.000000 1.000000 0.000000
vn 0.000000 0.932586 -0.360947
vn 0.000000 0.121305 -0.992615
vn 0.000000 0.121305 -0.992615
vn 0.000000 0.121307 -0.992615
vn 0.000000 0.001488 -0.999999
vn 0.000000 0.001488 -0.999999
vn 0.000000 0.001488 -0.999999
vn 0.000000 -0.112553 -0.993646
vn 0.000000 -0.112553 -0.993646
vn 0.000000 -0.112552 -0.993646
vn 0.000000 -1.000000 0.000000
vn 0.000000 -1.000000 0.000000
vn 0.000000 -0.926933 0.375228
vn 0.000000 -0.926933 0.375228
vn 0.000000 -1.000000 0.000000
vn 0.000000 -0.926933 0.375228
vn 0.000000 0.930510 0.366268
vn 0.000000 0.930509 0.366269
vn 0.000000 0.930510 0.366268
vn 0.000000 1.000000 0.000000
vn 0.000000 1.000000 0.000000
vn 0.000000 1.000000 0.000000
vn 0.000000 1.000000 0.000000
vn 0.000000 1.000000 0.000000
vn 0.000000 1.000000 0.000000
vn 0.000000 -1.000000 0.000000
vn 0.000000 -1.000000 0.000000
vn 0.000000 -1.000000 0.000000
vn 0.000000 -1.000000 0.000000
vn 0.000000 -1.000000 0.000000
vn 0.000000 -1.000000 0.000000
vn 0.000000 -0.931211 -0.364480
vn 0.000000 -0.931212 -0.364477
vn 0.000000 -0.931211 -0.364480
vn 0.000000 0.114253 0.993452
vn 0.000000 0.002639 0.999997
vn 0.000000 0.002639 0.999996
vn 0.000000 0.114253 0.993452
vn 0.000000 -0.098694 0.995118
vn 0.000000 -0.098694 0.995118
vn 0.000000 -0.098694 0.995118
vn 0.000000 0.002639 0.999997
vn 0.000000 0.114255 0.993451
vn 0.000000 1.000000 0.000000
vn 0.000000 0.930510 0.366268
vn 0.000000 0.930510 0.366268
vn 0.000000 1.000000 0.000000
vn 0.000000 0.930507 0.366275
vn 0.000000 1.000000 0.000000
vn 0.000000 1.000000 0.000000
vn 0.000000 1.000000 0.000000
vn 0.000000 1.000000 0.000000
vn 0.000000 1.000000 0.000000
vn 0.000000 1.000000 0.000000
vn 0.000000 1.000000 0.000000
vn 0.000000 0.121305 -0.992615
vn 0.000000 0.932586 -0.360947
vn 0.000000 0.932586 -0.360947
vn 0.000000 0.121305 -0.992615
vn 0.000000 0.932586 -0.360948
vn 0.000000 0.121306 -0.992615
vn 0.000000 -0.112553 -0.993646
vn 0.000000 0.001488 -0.999999
vn 0.000000 0.001488 -0.999999
vn 0.000000 -0.112553 -0.993646
vn 0.000000 0.001488 -0.999999
vn 0.000000 -0.112557 -0.993645
vn 0.000000 -1.000000 0.000000
vn 0.000000 -0.931211 -0.364480
vn 0.000000 -0.931211 -0.364480
vn 0.000000 -1.000000 0.000000
vn 0.000000 -0.931201 -0.364505
vn 0.000000 -1.000000 0.000000
vn 0.000000 -1.000000 0.000000
vn 0.000000 -1.000000 0.000000
vn 0.000000 -1.000000 0.000000
vn 0.000000 -1.000000 0.000000
vn 0.000000 -1.000000 0.000000
vn 0.000000 -1.000000 0.000000
vn 0.000000 -0.926933 0.375227
vn 0.000000 -0.926933 0.375228
vn 0.000000 -0.926940 0.375210
vn 0.000000 0.002639 0.999997
vn 0.000000 0.114253 0.993452
vn 0.000000 -0.098694 0.995118
vn 0.000000 0.930510 0.366268
vn 0.000000 1.000000 0.000000
vn 0.000000 1.000000 0.000000
vn 0.000000 1.000000 0.000000
vn 0.000000 0.932586 -0.360947
vn 0.000000 0.121305 -0.992615
vn 0.000000 0.001488 -0.999999
vn 0.000000 -0.112553 -0.993646
vn 0.000000 -0.931211 -0.364480
vn 0.000000 -1.000000 0.000000
vn 0.000000 -1.000000 0.000000
vn 0.000000 -1.000000 0.000000
vn 0.000000 -0.926933 0.375228
s 1
usemtl initialShadingGroup
f 1/1/1 57/2/2 89/3/3 60/4/4
f 57/2/2 25/5/5 58/6/6 89/3/3
f 89/3/3 58/6/6 26/7/7 59/8/8
f 60/4/4 89/3/3 59/8/8 3/9/9
f 11/10/10 61/11/11 90/139/12 64/140/13
f 61/11/11 28/14/14 62/15/15 90/139/12
f 90/12/12 62/121/15 29/16/16 63/17/17
f 64/13/13 90/12/12 63/17/17 5/18/18
f 5/18/18 63/17/17 91/19/19 67/20/20
f 63/17/17 29/16/16 65/21/21 91/19/19
f 91/19/19 65/21/21 30/22/22 66/23/23
f 67/20/20 91/19/19 66/23/23 7/24/24
f 13/25/25 68/26/26 92/137/27 70/138/28
f 68/26/26 32/29/29 69/30/30 92/137/27
f 92/27/27 69/115/30 25/5/5 57/2/2
f 70/28/28 92/27/27 57/2/2 1/1/1
f 3/9/9 59/8/8 93/135/31 73/136/32
f 59/8/8 26/7/7 71/33/33 93/135/31
f 93/31/31 71/124/33 27/34/34 72/35/35
f 73/32/32 93/31/31 72/35/35 9/36/36
f 9/36/36 72/35/35 94/37/37 75/38/38
f 72/35/35 27/34/34 74/39/39 94/37/37
f 94/37/37 74/39/39 28/14/14 61/11/11
f 75/38/38 94/37/37 61/11/11 11/10/10
f 15/40/40 76/41/41 95/42/42 78/43/43
f 76/41/41 31/44/44 77/45/45 95/42/42
f 95/42/42 77/45/45 32/29/29 68/26/26
f 78/43/43 95/42/42 68/26/26 13/25/25
f 7/24/24 66/23/23 96/133/46 80/134/47
f 66/23/23 30/22/22 79/48/48 96/133/46
f 96/46/46 79/118/48 31/44/44 76/41/41
f 80/47/47 96/46/46 76/41/41 15/40/40
f 18/49/49 81/50/50 97/51/51 84/52/52
f 81/50/50 17/53/53 82/54/54 97/51/51
f 97/51/51 82/54/54 2/55/55 83/56/56
f 84/52/52 97/51/51 83/56/56 4/57/57
f 19/58/58 85/59/59 98/132/60 87/61/61
f 85/122/59 18/49/49 84/52/52 98/60/60
f 98/60/60 84/52/52 4/57/57 86/62/62
f 87/61/61 98/132/60 86/131/62 10/63/63
f 20/64/64 88/65/65 99/66/66 34/67/67
f 88/65/65 19/58/58 87/61/61 99/66/66
f 99/66/66 87/61/61 10/63/63 33/68/68
f 34/67/67 99/66/66 33/68/68 12/69/69
f 21/70/70 35/71/71 100/130/72 37/73/73
f 35/119/71 20/64/64 34/67/67 100/72/72
f 100/72/72 34/67/67 12/69/69 36/74/74
f 37/73/73 100/130/72 36/129/74 6/75/75
f 22/76/76 38/77/77 101/78/78 40/79/79
f 38/77/77 21/70/70 37/73/73 101/78/78
f 101/78/78 37/73/73 6/75/75 39/80/80
f 40/79/79 101/78/78 39/80/80 8/81/81
f 23/82/82 41/83/83 102/128/84 43/85/85
f 41/116/83 22/76/76 40/79/79 102/84/84
f 102/84/84 40/79/79 8/81/81 42/86/86
f 43/85/85 102/128/84 42/127/86 16/87/87
f 24/88/88 44/89/89 103/90/90 46/91/91
f 44/89/89 23/82/82 43/85/85 103/90/90
f 103/90/90 43/85/85 16/87/87 45/92/92
f 46/91/91 103/90/90 45/92/92 14/93/93
f 17/53/53 47/94/94 104/126/95 82/54/54
f 47/113/94 24/88/88 46/91/91 104/95/95
f 104/95/95 46/91/91 14/93/93 48/96/96
f 82/54/54 104/126/95 48/125/96 2/55/55
f 26/7/7 58/6/6 105/97/97 50/98/98
f 58/6/6 25/5/5 49/99/99 105/97/97
f 105/97/97 49/99/99 17/53/53 81/50/50
f 50/98/98 105/97/97 81/50/50 18/49/49
f 27/34/34 71/124/33 106/123/100 51/101/101
f 71/33/33 26/7/7 50/98/98 106/100/100
f 106/100/100 50/98/98 18/49/49 85/122/59
f 51/101/101 106/123/100 85/59/59 19/58/58
f 28/14/14 74/39/39 107/102/102 52/103/103
f 74/39/39 27/34/34 51/101/101 107/102/102
f 107/102/102 51/101/101 19/58/58 88/65/65
f 52/103/103 107/102/102 88/65/65 20/64/64
f 29/16/16 62/121/15 108/120/104 53/105/105
f 62/15/15 28/14/14 52/103/103 108/104/104
f 108/104/104 52/103/103 20/64/64 35/119/71
f 53/105/105 108/120/104 35/71/71 21/70/70
f 30/22/22 65/21/21 109/106/106 54/107/107
f 65/21/21 29/16/16 53/105/105 109/106/106
f 109/106/106 53/105/105 21/70/70 38/77/77
f 54/107/107 109/106/106 38/77/77 22/76/76
f 31/44/44 79/118/48 110/117/108 55/109/109
f 79/48/48 30/22/22 54/107/107 110/108/108
f 110/108/108 54/107/107 22/76/76 41/116/83
f 55/109/109 110/117/108 41/83/83 23/82/82
f 32/29/29 77/45/45 111/110/110 56/111/111
f 77/45/45 31/44/44 55/109/109 111/110/110
f 111/110/110 55/109/109 23/82/82 44/89/89
f 56/111/111 111/110/110 44/89/89 24/88/88
f 25/5/5 69/115/30 112/114/112 49/99/99
f 69/30/30 32/29/29 56/111/111 112/112/112
f 112/112/112 56/111/111 24/88/88 47/113/94
f 49/99/99 112/114/112 47/94/94 17/53/53
